# xmcd
#
# Track frame offsets:
#	150
#	16114
#	31717
#	32690
#	42689
#	55537
#	71721
#	86301
#	102033
#	102656
#	117625
#	130340
#	147510
#
# Disc length: 2151 seconds
#
# Revision: 1
# Processed by: cddbd v1.5.2PL0 Copyright (c) Steve Scherf et al.
# Submitted via: audiograbber 1.83.01
#
DISCID=af08650d
DTITLE=Various Artist - Hillcrest #23
DYEAR=1900
DGENRE=Country
TTITLE0=Lucie Diamond - Kilimanjaro
TTITLE1=Tony Eales - Ain't No Stopping This Heart
TTITLE2=Clelia Adams - radio ID
TTITLE3=Clelia Adams - Back In Baby's Arms
TTITLE4=Ren Lehman - She Kisses Me
TTITLE5=Desi Kay - Downtown Austin
TTITLE6=Michael John Ahern and The Little Wheels Band - She's The One
TTITLE7=Nicki Gillis - Jealousy
TTITLE8=Danny Mack - Radio ID
TTITLE9=Danny Mack - If I Had Left It Up To You
TTITLE10=Mike Lee - Lover's Triangle
TTITLE11=Dave Lowis - First Kiss
TTITLE12=Sherry Kennedy - Goin' Thru The Motions
EXTD=
EXTT0=
EXTT1=
EXTT2=
EXTT3=
EXTT4=
EXTT5=
EXTT6=
EXTT7=
EXTT8=
EXTT9=
EXTT10=
EXTT11=
EXTT12=
PLAYORDER=
